M48
; DRILL file {KiCad 8.0.8} date 2026-01-17T12:19:19-0800
; FORMAT={-:-/ absolute / inch / decimal}
; #@! TF.CreationDate,2026-01-17T12:19:19-08:00
; #@! TF.GenerationSoftware,Kicad,Pcbnew,8.0.8
; #@! TF.FileFunction,Plated,1,2,PTH
FMAT,2
INCH
; #@! TA.AperFunction,Plated,PTH,ViaDrill
T1C0.0079
; #@! TA.AperFunction,Plated,PTH,ComponentDrill
T2C0.0079
; #@! TA.AperFunction,Plated,PTH,ViaDrill
T3C0.0157
; #@! TA.AperFunction,Plated,PTH,ComponentDrill
T4C0.0394
; #@! TA.AperFunction,Plated,PTH,ComponentDrill
T5C0.0630
; #@! TA.AperFunction,Plated,PTH,ComponentDrill
T6C0.1260
%
G90
G05
T1
X3.0673Y-2.9925
X3.1669Y-2.8925
X3.8398Y-2.1768
X4.6496Y-2.2358
X7.7929Y-2.9925
X7.8929Y-2.8925
T2
X2.4839Y-2.1969
X2.4839Y-2.2441
X2.4839Y-2.2913
X2.539Y-2.1969
X2.539Y-2.2441
X2.539Y-2.2913
X4.628Y-1.922
X4.628Y-1.9693
X4.628Y-2.0165
X4.6831Y-1.922
X4.6831Y-1.9693
X4.6831Y-2.0165
X6.2602Y-2.1929
X6.2602Y-2.2402
X6.2602Y-2.2874
X6.3154Y-2.1929
X6.3154Y-2.2402
X6.3154Y-2.2874
T3
X2.7469Y-3.5929
X2.7638Y-2.4264
X2.8504Y-3.1925
X2.9669Y-3.0925
X3.7606Y-3.5925
X4.1579Y-3.1925
X4.9157Y-3.1925
X6.6146Y-3.5937
X6.7776Y-3.1925
X7.5925Y-3.1925
X7.6929Y-3.0925
X8.4854Y-3.5941
X8.8854Y-3.1925
T4
X1.8512Y-3.0925
X1.8512Y-3.1925
X2.4669Y-4.0732
X2.4669Y-4.1732
X2.4697Y-2.8925
X2.4697Y-2.9925
X2.4697Y-3.0925
X2.4697Y-3.1925
X2.4697Y-3.2925
X2.4697Y-3.3925
X2.4697Y-3.4925
X2.4697Y-3.5925
X2.5669Y-4.0732
X2.5669Y-4.1732
X2.5697Y-2.8925
X2.5697Y-2.9925
X2.5697Y-3.0925
X2.5697Y-3.1925
X2.5697Y-3.2925
X2.5697Y-3.3925
X2.5697Y-3.4925
X2.5697Y-3.5925
X2.6669Y-4.0732
X2.6669Y-4.1732
X2.7669Y-4.0732
X2.7669Y-4.1732
X2.8543Y-2.8419
X2.8543Y-2.9419
X2.8669Y-4.0732
X2.8669Y-4.1732
X2.9669Y-4.0732
X2.9669Y-4.1732
X3.0669Y-4.0732
X3.0669Y-4.1732
X3.1669Y-4.0732
X3.1669Y-4.1732
X3.4146Y-2.8937
X3.4146Y-2.9937
X3.4146Y-3.0937
X3.4146Y-3.1937
X3.4146Y-3.2937
X3.4146Y-3.3937
X3.4146Y-3.4937
X3.4146Y-3.5937
X3.5146Y-2.8937
X3.5146Y-2.9937
X3.5146Y-3.0937
X3.5146Y-3.1937
X3.5146Y-3.2937
X3.5146Y-3.3937
X3.5146Y-3.4937
X3.5146Y-3.5937
X3.761Y-4.0732
X3.761Y-4.1732
X3.861Y-4.0732
X3.861Y-4.1732
X3.961Y-4.0732
X3.961Y-4.1732
X4.061Y-4.0732
X4.061Y-4.1732
X4.161Y-4.0732
X4.161Y-4.1732
X4.261Y-4.0732
X4.261Y-4.1732
X4.3594Y-2.8937
X4.3594Y-2.9937
X4.3594Y-3.0937
X4.3594Y-3.1937
X4.3594Y-3.2937
X4.3594Y-3.3937
X4.3594Y-3.4937
X4.3594Y-3.5937
X4.361Y-4.0732
X4.361Y-4.1732
X4.4594Y-2.8937
X4.4594Y-2.9937
X4.4594Y-3.0937
X4.4594Y-3.1937
X4.4594Y-3.2937
X4.4594Y-3.3937
X4.4594Y-3.4937
X4.4594Y-3.5937
X4.461Y-4.0732
X4.461Y-4.1732
X4.9146Y-2.8421
X4.9146Y-2.9421
X5.3043Y-2.8937
X5.3043Y-2.9937
X5.3043Y-3.0937
X5.3043Y-3.1937
X5.3043Y-3.2937
X5.3043Y-3.3937
X5.3043Y-3.4937
X5.3043Y-3.5937
X5.4043Y-2.8937
X5.4043Y-2.9937
X5.4043Y-3.0937
X5.4043Y-3.1937
X5.4043Y-3.2937
X5.4043Y-3.3937
X5.4043Y-3.4937
X5.4043Y-3.5937
X6.2492Y-2.8937
X6.2492Y-2.9937
X6.2492Y-3.0937
X6.2492Y-3.1937
X6.2492Y-3.2937
X6.2492Y-3.3937
X6.2492Y-3.4937
X6.2492Y-3.5937
X6.3492Y-2.8937
X6.3492Y-2.9937
X6.3492Y-3.0937
X6.3492Y-3.1937
X6.3492Y-3.2937
X6.3492Y-3.3937
X6.3492Y-3.4937
X6.3492Y-3.5937
X6.7772Y-2.8423
X6.7772Y-2.9423
X7.1929Y-4.0732
X7.1929Y-4.1732
X7.1941Y-2.8937
X7.1941Y-2.9937
X7.1941Y-3.0937
X7.1941Y-3.1937
X7.1941Y-3.2937
X7.1941Y-3.3937
X7.1941Y-3.4937
X7.1941Y-3.5937
X7.2929Y-4.0732
X7.2929Y-4.1732
X7.2941Y-2.8937
X7.2941Y-2.9937
X7.2941Y-3.0937
X7.2941Y-3.1937
X7.2941Y-3.2937
X7.2941Y-3.3937
X7.2941Y-3.4937
X7.2941Y-3.5937
X7.3929Y-4.0732
X7.3929Y-4.1732
X7.4929Y-4.0732
X7.4929Y-4.1732
X7.5929Y-4.0732
X7.5929Y-4.1732
X7.6929Y-4.0732
X7.6929Y-4.1732
X7.7929Y-4.0732
X7.7929Y-4.1732
X7.8929Y-4.0732
X7.8929Y-4.1732
X8.139Y-2.8937
X8.139Y-2.9937
X8.139Y-3.0937
X8.139Y-3.1937
X8.139Y-3.2937
X8.139Y-3.3937
X8.139Y-3.4937
X8.139Y-3.5937
X8.239Y-2.8937
X8.239Y-2.9937
X8.239Y-3.0937
X8.239Y-3.1937
X8.239Y-3.2937
X8.239Y-3.3937
X8.239Y-3.4937
X8.239Y-3.5937
X8.4854Y-4.0732
X8.4854Y-4.1732
X8.5854Y-4.0732
X8.5854Y-4.1732
X8.6854Y-4.0732
X8.6854Y-4.1732
X8.7854Y-4.0732
X8.7854Y-4.1732
X8.8854Y-4.0732
X8.8854Y-4.1732
X8.9854Y-4.0732
X8.9854Y-4.1732
X9.0839Y-2.8937
X9.0839Y-2.9937
X9.0839Y-3.0937
X9.0839Y-3.1937
X9.0839Y-3.2937
X9.0839Y-3.3937
X9.0839Y-3.4937
X9.0839Y-3.5937
X9.0854Y-4.0732
X9.0854Y-4.1732
X9.1839Y-2.8937
X9.1839Y-2.9937
X9.1839Y-3.0937
X9.1839Y-3.1937
X9.1839Y-3.2937
X9.1839Y-3.3937
X9.1839Y-3.4937
X9.1839Y-3.5937
X9.1854Y-4.0732
X9.1854Y-4.1732
T5
X5.8268Y-4.1339
T6
X1.9685Y-1.7913
X1.9685Y-3.7795
X9.685Y-1.7913
X9.685Y-3.7795
M30
