%TF.GenerationSoftware,KiCad,Pcbnew,8.0.8*%
%TF.CreationDate,2026-01-17T12:19:23-08:00*%
%TF.ProjectId,SuperMelper,53757065-724d-4656-9c70-65722e6b6963,1.0*%
%TF.SameCoordinates,Original*%
%TF.FileFunction,Paste,Top*%
%TF.FilePolarity,Positive*%
%FSLAX46Y46*%
G04 Gerber Fmt 4.6, Leading zero omitted, Abs format (unit mm)*
G04 Created by KiCad (PCBNEW 8.0.8) date 2026-01-17 12:19:23*
%MOMM*%
%LPD*%
G01*
G04 APERTURE LIST*
G04 Aperture macros list*
%AMRoundRect*
0 Rectangle with rounded corners*
0 $1 Rounding radius*
0 $2 $3 $4 $5 $6 $7 $8 $9 X,Y pos of 4 corners*
0 Add a 4 corners polygon primitive as box body*
4,1,4,$2,$3,$4,$5,$6,$7,$8,$9,$2,$3,0*
0 Add four circle primitives for the rounded corners*
1,1,$1+$1,$2,$3*
1,1,$1+$1,$4,$5*
1,1,$1+$1,$6,$7*
1,1,$1+$1,$8,$9*
0 Add four rect primitives between the rounded corners*
20,1,$1+$1,$2,$3,$4,$5,0*
20,1,$1+$1,$4,$5,$6,$7,0*
20,1,$1+$1,$6,$7,$8,$9,0*
20,1,$1+$1,$8,$9,$2,$3,0*%
G04 Aperture macros list end*
%ADD10RoundRect,0.250000X-0.300000X-1.600000X0.300000X-1.600000X0.300000X1.600000X-0.300000X1.600000X0*%
%ADD11RoundRect,0.225000X0.225000X0.375000X-0.225000X0.375000X-0.225000X-0.375000X0.225000X-0.375000X0*%
%ADD12RoundRect,0.225000X0.375000X-0.225000X0.375000X0.225000X-0.375000X0.225000X-0.375000X-0.225000X0*%
%ADD13RoundRect,0.200000X0.200000X0.275000X-0.200000X0.275000X-0.200000X-0.275000X0.200000X-0.275000X0*%
%ADD14RoundRect,0.250000X-0.550000X1.500000X-0.550000X-1.500000X0.550000X-1.500000X0.550000X1.500000X0*%
%ADD15RoundRect,0.225000X-0.250000X0.225000X-0.250000X-0.225000X0.250000X-0.225000X0.250000X0.225000X0*%
%ADD16RoundRect,0.237500X-0.287500X-0.237500X0.287500X-0.237500X0.287500X0.237500X-0.287500X0.237500X0*%
%ADD17RoundRect,0.200000X-0.200000X-0.275000X0.200000X-0.275000X0.200000X0.275000X-0.200000X0.275000X0*%
%ADD18RoundRect,0.250000X-1.950000X-0.700000X1.950000X-0.700000X1.950000X0.700000X-1.950000X0.700000X0*%
%ADD19RoundRect,0.225000X0.225000X0.250000X-0.225000X0.250000X-0.225000X-0.250000X0.225000X-0.250000X0*%
%ADD20RoundRect,0.250000X-0.255000X-0.440000X0.255000X-0.440000X0.255000X0.440000X-0.255000X0.440000X0*%
%ADD21RoundRect,0.150000X-0.825000X-0.150000X0.825000X-0.150000X0.825000X0.150000X-0.825000X0.150000X0*%
%ADD22RoundRect,0.225000X-0.225000X-0.250000X0.225000X-0.250000X0.225000X0.250000X-0.225000X0.250000X0*%
%ADD23RoundRect,0.225000X0.250000X-0.225000X0.250000X0.225000X-0.250000X0.225000X-0.250000X-0.225000X0*%
%ADD24RoundRect,0.250000X2.450000X-1.200000X2.450000X1.200000X-2.450000X1.200000X-2.450000X-1.200000X0*%
%ADD25RoundRect,0.200000X0.275000X-0.200000X0.275000X0.200000X-0.275000X0.200000X-0.275000X-0.200000X0*%
%ADD26RoundRect,0.237500X0.287500X0.237500X-0.287500X0.237500X-0.287500X-0.237500X0.287500X-0.237500X0*%
%ADD27RoundRect,0.250000X-1.500000X-0.550000X1.500000X-0.550000X1.500000X0.550000X-1.500000X0.550000X0*%
%ADD28RoundRect,0.250000X1.950000X0.700000X-1.950000X0.700000X-1.950000X-0.700000X1.950000X-0.700000X0*%
%ADD29RoundRect,0.200000X-0.275000X0.200000X-0.275000X-0.200000X0.275000X-0.200000X0.275000X0.200000X0*%
%ADD30RoundRect,0.250000X1.500000X0.550000X-1.500000X0.550000X-1.500000X-0.550000X1.500000X-0.550000X0*%
%ADD31RoundRect,0.250000X1.200000X2.450000X-1.200000X2.450000X-1.200000X-2.450000X1.200000X-2.450000X0*%
G04 APERTURE END LIST*
D10*
%TO.C,L4*%
X97480000Y-58600000D03*
X100480000Y-58600000D03*
%TD*%
D11*
%TO.C,D6*%
X59220000Y-55550000D03*
X55920000Y-55550000D03*
%TD*%
%TO.C,D2*%
X155120000Y-55380000D03*
X151820000Y-55380000D03*
%TD*%
D12*
%TO.C,D1*%
X114820000Y-46022500D03*
X114820000Y-42722500D03*
%TD*%
D13*
%TO.C,R7*%
X122515000Y-46150000D03*
X120865000Y-46150000D03*
%TD*%
D14*
%TO.C,C17*%
X54980000Y-79770000D03*
X54980000Y-85170000D03*
%TD*%
D15*
%TO.C,C2*%
X66240000Y-63670000D03*
X66240000Y-65220000D03*
%TD*%
D16*
%TO.C,LED4*%
X162125000Y-99000000D03*
X163875000Y-99000000D03*
%TD*%
D13*
%TO.C,R6*%
X70290000Y-52210000D03*
X68640000Y-52210000D03*
%TD*%
D17*
%TO.C,R11*%
X159155000Y-60490000D03*
X160805000Y-60490000D03*
%TD*%
D18*
%TO.C,C8*%
X48360000Y-62420000D03*
X57060000Y-62420000D03*
%TD*%
D19*
%TO.C,C16*%
X100480000Y-62240000D03*
X98930000Y-62240000D03*
%TD*%
D10*
%TO.C,L5*%
X159120000Y-65040000D03*
X162120000Y-65040000D03*
%TD*%
D18*
%TO.C,C15*%
X144390000Y-62910000D03*
X153090000Y-62910000D03*
%TD*%
D20*
%TO.C,U2*%
X63190000Y-56175000D03*
X63190000Y-57825000D03*
X64390000Y-56175000D03*
X64390000Y-57825000D03*
D21*
X61315000Y-55095000D03*
X61315000Y-56365000D03*
X61315000Y-57635000D03*
X61315000Y-58905000D03*
X66265000Y-58905000D03*
X66265000Y-57635000D03*
X66265000Y-56365000D03*
X66265000Y-55095000D03*
%TD*%
D16*
%TO.C,LED1*%
X139590000Y-98980000D03*
X141340000Y-98980000D03*
%TD*%
D22*
%TO.C,C11*%
X114560000Y-53700000D03*
X116110000Y-53700000D03*
%TD*%
D23*
%TO.C,C7*%
X50290000Y-81070000D03*
X50290000Y-79520000D03*
%TD*%
D24*
%TO.C,L6*%
X152700000Y-52400000D03*
X152700000Y-42500000D03*
%TD*%
D18*
%TO.C,C12*%
X104230000Y-62260000D03*
X112930000Y-62260000D03*
%TD*%
D15*
%TO.C,C6*%
X155080000Y-58940000D03*
X155080000Y-57390000D03*
%TD*%
D25*
%TO.C,R1*%
X143420000Y-100620000D03*
X143420000Y-98970000D03*
%TD*%
D26*
%TO.C,LED2*%
X156390000Y-99000000D03*
X154640000Y-99000000D03*
%TD*%
D13*
%TO.C,R12*%
X163895000Y-60490000D03*
X162245000Y-60490000D03*
%TD*%
D17*
%TO.C,R9*%
X118095000Y-55370000D03*
X119745000Y-55370000D03*
%TD*%
%TO.C,R8*%
X118115000Y-53690000D03*
X119765000Y-53690000D03*
%TD*%
D20*
%TO.C,U1*%
X117650000Y-49195000D03*
X117650000Y-50845000D03*
X118850000Y-49195000D03*
X118850000Y-50845000D03*
D21*
X115775000Y-48115000D03*
X115775000Y-49385000D03*
X115775000Y-50655000D03*
X115775000Y-51925000D03*
X120725000Y-51925000D03*
X120725000Y-50655000D03*
X120725000Y-49385000D03*
X120725000Y-48115000D03*
%TD*%
D27*
%TO.C,C5*%
X124840000Y-50650000D03*
X130240000Y-50650000D03*
%TD*%
D25*
%TO.C,R5*%
X67840000Y-62200000D03*
X67840000Y-60550000D03*
%TD*%
D15*
%TO.C,C4*%
X164070000Y-65770000D03*
X164070000Y-67320000D03*
%TD*%
D28*
%TO.C,C13*%
X97520000Y-49360000D03*
X88820000Y-49360000D03*
%TD*%
D29*
%TO.C,R13*%
X160340000Y-99000000D03*
X160340000Y-100650000D03*
%TD*%
D30*
%TO.C,C10*%
X75160000Y-64070000D03*
X69760000Y-64070000D03*
%TD*%
D13*
%TO.C,R10*%
X163840000Y-53130000D03*
X162190000Y-53130000D03*
%TD*%
D30*
%TO.C,C14*%
X171380000Y-63800000D03*
X165980000Y-63800000D03*
%TD*%
D25*
%TO.C,R2*%
X152490000Y-100650000D03*
X152490000Y-99000000D03*
%TD*%
D10*
%TO.C,L3*%
X61270000Y-63560000D03*
X64270000Y-63560000D03*
%TD*%
D29*
%TO.C,R3*%
X130310000Y-98990000D03*
X130310000Y-100640000D03*
%TD*%
D15*
%TO.C,C3*%
X59210000Y-57625000D03*
X59210000Y-59175000D03*
%TD*%
D31*
%TO.C,L2*%
X111870000Y-49420000D03*
X101970000Y-49420000D03*
%TD*%
D27*
%TO.C,C9*%
X69720000Y-56820000D03*
X75120000Y-56820000D03*
%TD*%
D25*
%TO.C,R4*%
X66260000Y-62210000D03*
X66260000Y-60560000D03*
%TD*%
D16*
%TO.C,LED3*%
X132125000Y-99000000D03*
X133875000Y-99000000D03*
%TD*%
D20*
%TO.C,U3*%
X159110000Y-56075000D03*
X159110000Y-57725000D03*
X160310000Y-56075000D03*
X160310000Y-57725000D03*
D21*
X157235000Y-54995000D03*
X157235000Y-56265000D03*
X157235000Y-57535000D03*
X157235000Y-58805000D03*
X162185000Y-58805000D03*
X162185000Y-57535000D03*
X162185000Y-56265000D03*
X162185000Y-54995000D03*
%TD*%
D27*
%TO.C,C1*%
X165620000Y-56600000D03*
X171020000Y-56600000D03*
%TD*%
D24*
%TO.C,L1*%
X61140000Y-52510000D03*
X61140000Y-42610000D03*
%TD*%
M02*
