%TF.GenerationSoftware,KiCad,Pcbnew,8.0.8*%
%TF.CreationDate,2026-01-17T12:19:23-08:00*%
%TF.ProjectId,SuperMelper,53757065-724d-4656-9c70-65722e6b6963,1.0*%
%TF.SameCoordinates,Original*%
%TF.FileFunction,Soldermask,Top*%
%TF.FilePolarity,Negative*%
%FSLAX46Y46*%
G04 Gerber Fmt 4.6, Leading zero omitted, Abs format (unit mm)*
G04 Created by KiCad (PCBNEW 8.0.8) date 2026-01-17 12:19:23*
%MOMM*%
%LPD*%
G01*
G04 APERTURE LIST*
G04 Aperture macros list*
%AMRoundRect*
0 Rectangle with rounded corners*
0 $1 Rounding radius*
0 $2 $3 $4 $5 $6 $7 $8 $9 X,Y pos of 4 corners*
0 Add a 4 corners polygon primitive as box body*
4,1,4,$2,$3,$4,$5,$6,$7,$8,$9,$2,$3,0*
0 Add four circle primitives for the rounded corners*
1,1,$1+$1,$2,$3*
1,1,$1+$1,$4,$5*
1,1,$1+$1,$6,$7*
1,1,$1+$1,$8,$9*
0 Add four rect primitives between the rounded corners*
20,1,$1+$1,$2,$3,$4,$5,0*
20,1,$1+$1,$4,$5,$6,$7,0*
20,1,$1+$1,$6,$7,$8,$9,0*
20,1,$1+$1,$8,$9,$2,$3,0*%
G04 Aperture macros list end*
%ADD10RoundRect,0.250000X-0.300000X-1.600000X0.300000X-1.600000X0.300000X1.600000X-0.300000X1.600000X0*%
%ADD11RoundRect,0.225000X0.225000X0.375000X-0.225000X0.375000X-0.225000X-0.375000X0.225000X-0.375000X0*%
%ADD12RoundRect,0.225000X0.375000X-0.225000X0.375000X0.225000X-0.375000X0.225000X-0.375000X-0.225000X0*%
%ADD13RoundRect,0.200000X0.200000X0.275000X-0.200000X0.275000X-0.200000X-0.275000X0.200000X-0.275000X0*%
%ADD14C,5.600000*%
%ADD15RoundRect,0.250000X-0.550000X1.500000X-0.550000X-1.500000X0.550000X-1.500000X0.550000X1.500000X0*%
%ADD16R,1.700000X1.700000*%
%ADD17O,1.700000X1.700000*%
%ADD18C,2.000000*%
%ADD19RoundRect,0.225000X-0.250000X0.225000X-0.250000X-0.225000X0.250000X-0.225000X0.250000X0.225000X0*%
%ADD20RoundRect,0.237500X-0.287500X-0.237500X0.287500X-0.237500X0.287500X0.237500X-0.287500X0.237500X0*%
%ADD21RoundRect,0.200000X-0.200000X-0.275000X0.200000X-0.275000X0.200000X0.275000X-0.200000X0.275000X0*%
%ADD22RoundRect,0.250000X-1.950000X-0.700000X1.950000X-0.700000X1.950000X0.700000X-1.950000X0.700000X0*%
%ADD23RoundRect,0.225000X0.225000X0.250000X-0.225000X0.250000X-0.225000X-0.250000X0.225000X-0.250000X0*%
%ADD24RoundRect,0.150000X-0.825000X-0.150000X0.825000X-0.150000X0.825000X0.150000X-0.825000X0.150000X0*%
%ADD25R,2.410000X3.300000*%
%ADD26RoundRect,0.225000X-0.225000X-0.250000X0.225000X-0.250000X0.225000X0.250000X-0.225000X0.250000X0*%
%ADD27RoundRect,0.225000X0.250000X-0.225000X0.250000X0.225000X-0.250000X0.225000X-0.250000X-0.225000X0*%
%ADD28RoundRect,0.250000X2.450000X-1.200000X2.450000X1.200000X-2.450000X1.200000X-2.450000X-1.200000X0*%
%ADD29RoundRect,0.200000X0.275000X-0.200000X0.275000X0.200000X-0.275000X0.200000X-0.275000X-0.200000X0*%
%ADD30RoundRect,0.237500X0.287500X0.237500X-0.287500X0.237500X-0.287500X-0.237500X0.287500X-0.237500X0*%
%ADD31RoundRect,0.250000X-1.500000X-0.550000X1.500000X-0.550000X1.500000X0.550000X-1.500000X0.550000X0*%
%ADD32RoundRect,0.250000X1.950000X0.700000X-1.950000X0.700000X-1.950000X-0.700000X1.950000X-0.700000X0*%
%ADD33C,2.800000*%
%ADD34RoundRect,0.200000X-0.275000X0.200000X-0.275000X-0.200000X0.275000X-0.200000X0.275000X0.200000X0*%
%ADD35RoundRect,0.250000X1.500000X0.550000X-1.500000X0.550000X-1.500000X-0.550000X1.500000X-0.550000X0*%
%ADD36RoundRect,0.250000X1.200000X2.450000X-1.200000X2.450000X-1.200000X-2.450000X1.200000X-2.450000X0*%
G04 APERTURE END LIST*
D10*
%TO.C,L4*%
X97480000Y-58600000D03*
X100480000Y-58600000D03*
%TD*%
D11*
%TO.C,D6*%
X59220000Y-55550000D03*
X55920000Y-55550000D03*
%TD*%
%TO.C,D2*%
X155120000Y-55380000D03*
X151820000Y-55380000D03*
%TD*%
D12*
%TO.C,D1*%
X114820000Y-46022500D03*
X114820000Y-42722500D03*
%TD*%
D13*
%TO.C,R7*%
X122515000Y-46150000D03*
X120865000Y-46150000D03*
%TD*%
D14*
%TO.C,H2*%
X246000000Y-96000000D03*
%TD*%
D15*
%TO.C,C17*%
X54980000Y-79770000D03*
X54980000Y-85170000D03*
%TD*%
D16*
%TO.C,J18*%
X172140000Y-74735000D03*
D17*
X172140000Y-72195000D03*
%TD*%
D18*
%TO.C,TP2*%
X140500000Y-105000000D03*
%TD*%
D16*
%TO.C,J5*%
X161270000Y-91280000D03*
D17*
X158730000Y-91280000D03*
X161270000Y-88740000D03*
X158730000Y-88740000D03*
X161270000Y-86200000D03*
X158730000Y-86200000D03*
X161270000Y-83660000D03*
X158730000Y-83660000D03*
X161270000Y-81120000D03*
X158730000Y-81120000D03*
X161270000Y-78580000D03*
X158730000Y-78580000D03*
X161270000Y-76040000D03*
X158730000Y-76040000D03*
X161270000Y-73500000D03*
X158730000Y-73500000D03*
%TD*%
D19*
%TO.C,C2*%
X66240000Y-63670000D03*
X66240000Y-65220000D03*
%TD*%
D20*
%TO.C,LED4*%
X162125000Y-99000000D03*
X163875000Y-99000000D03*
%TD*%
D13*
%TO.C,R6*%
X70290000Y-52210000D03*
X68640000Y-52210000D03*
%TD*%
D16*
%TO.C,J3*%
X113270000Y-91280000D03*
D17*
X110730000Y-91280000D03*
X113270000Y-88740000D03*
X110730000Y-88740000D03*
X113270000Y-86200000D03*
X110730000Y-86200000D03*
X113270000Y-83660000D03*
X110730000Y-83660000D03*
X113270000Y-81120000D03*
X110730000Y-81120000D03*
X113270000Y-78580000D03*
X110730000Y-78580000D03*
X113270000Y-76040000D03*
X110730000Y-76040000D03*
X113270000Y-73500000D03*
X110730000Y-73500000D03*
%TD*%
D21*
%TO.C,R11*%
X159155000Y-60490000D03*
X160805000Y-60490000D03*
%TD*%
D22*
%TO.C,C8*%
X48360000Y-62420000D03*
X57060000Y-62420000D03*
%TD*%
D18*
%TO.C,TP4*%
X133000000Y-105000000D03*
%TD*%
D16*
%TO.C,J7*%
X209270000Y-91280000D03*
D17*
X206730000Y-91280000D03*
X209270000Y-88740000D03*
X206730000Y-88740000D03*
X209270000Y-86200000D03*
X206730000Y-86200000D03*
X209270000Y-83660000D03*
X206730000Y-83660000D03*
X209270000Y-81120000D03*
X206730000Y-81120000D03*
X209270000Y-78580000D03*
X206730000Y-78580000D03*
X209270000Y-76040000D03*
X206730000Y-76040000D03*
X209270000Y-73500000D03*
X206730000Y-73500000D03*
%TD*%
D16*
%TO.C,J8*%
X233270000Y-91280000D03*
D17*
X230730000Y-91280000D03*
X233270000Y-88740000D03*
X230730000Y-88740000D03*
X233270000Y-86200000D03*
X230730000Y-86200000D03*
X233270000Y-83660000D03*
X230730000Y-83660000D03*
X233270000Y-81120000D03*
X230730000Y-81120000D03*
X233270000Y-78580000D03*
X230730000Y-78580000D03*
X233270000Y-76040000D03*
X230730000Y-76040000D03*
X233270000Y-73500000D03*
X230730000Y-73500000D03*
%TD*%
D16*
%TO.C,J13*%
X47020000Y-78550000D03*
D17*
X47020000Y-81090000D03*
%TD*%
D23*
%TO.C,C16*%
X100480000Y-62240000D03*
X98930000Y-62240000D03*
%TD*%
D10*
%TO.C,L5*%
X159120000Y-65040000D03*
X162120000Y-65040000D03*
%TD*%
D22*
%TO.C,C15*%
X144390000Y-62910000D03*
X153090000Y-62910000D03*
%TD*%
D24*
%TO.C,U2*%
X61315000Y-55095000D03*
X61315000Y-56365000D03*
X61315000Y-57635000D03*
X61315000Y-58905000D03*
X66265000Y-58905000D03*
X66265000Y-57635000D03*
X66265000Y-56365000D03*
X66265000Y-55095000D03*
D25*
X63790000Y-57000000D03*
%TD*%
D20*
%TO.C,LED1*%
X139590000Y-98980000D03*
X141340000Y-98980000D03*
%TD*%
D16*
%TO.C,J4*%
X137270000Y-91280000D03*
D17*
X134730000Y-91280000D03*
X137270000Y-88740000D03*
X134730000Y-88740000D03*
X137270000Y-86200000D03*
X134730000Y-86200000D03*
X137270000Y-83660000D03*
X134730000Y-83660000D03*
X137270000Y-81120000D03*
X134730000Y-81120000D03*
X137270000Y-78580000D03*
X134730000Y-78580000D03*
X137270000Y-76040000D03*
X134730000Y-76040000D03*
X137270000Y-73500000D03*
X134730000Y-73500000D03*
%TD*%
D26*
%TO.C,C11*%
X114560000Y-53700000D03*
X116110000Y-53700000D03*
%TD*%
D27*
%TO.C,C7*%
X50290000Y-81070000D03*
X50290000Y-79520000D03*
%TD*%
D28*
%TO.C,L6*%
X152700000Y-52400000D03*
X152700000Y-42500000D03*
%TD*%
D22*
%TO.C,C12*%
X104230000Y-62260000D03*
X112930000Y-62260000D03*
%TD*%
D19*
%TO.C,C6*%
X155080000Y-58940000D03*
X155080000Y-57390000D03*
%TD*%
D29*
%TO.C,R1*%
X143420000Y-100620000D03*
X143420000Y-98970000D03*
%TD*%
D30*
%TO.C,LED2*%
X156390000Y-99000000D03*
X154640000Y-99000000D03*
%TD*%
D14*
%TO.C,H4*%
X246000000Y-45500000D03*
%TD*%
D16*
%TO.C,J12*%
X215530000Y-106000000D03*
D17*
X215530000Y-103460000D03*
X218070000Y-106000000D03*
X218070000Y-103460000D03*
X220610000Y-106000000D03*
X220610000Y-103460000D03*
X223150000Y-106000000D03*
X223150000Y-103460000D03*
X225690000Y-106000000D03*
X225690000Y-103460000D03*
X228230000Y-106000000D03*
X228230000Y-103460000D03*
X230770000Y-106000000D03*
X230770000Y-103460000D03*
X233310000Y-106000000D03*
X233310000Y-103460000D03*
%TD*%
D13*
%TO.C,R12*%
X163895000Y-60490000D03*
X162245000Y-60490000D03*
%TD*%
D21*
%TO.C,R9*%
X118095000Y-55370000D03*
X119745000Y-55370000D03*
%TD*%
%TO.C,R8*%
X118115000Y-53690000D03*
X119765000Y-53690000D03*
%TD*%
D24*
%TO.C,U1*%
X115775000Y-48115000D03*
X115775000Y-49385000D03*
X115775000Y-50655000D03*
X115775000Y-51925000D03*
X120725000Y-51925000D03*
X120725000Y-50655000D03*
X120725000Y-49385000D03*
X120725000Y-48115000D03*
D25*
X118250000Y-50020000D03*
%TD*%
D31*
%TO.C,C5*%
X124840000Y-50650000D03*
X130240000Y-50650000D03*
%TD*%
D29*
%TO.C,R5*%
X67840000Y-62200000D03*
X67840000Y-60550000D03*
%TD*%
D19*
%TO.C,C4*%
X164070000Y-65770000D03*
X164070000Y-67320000D03*
%TD*%
D16*
%TO.C,J9*%
X62660000Y-106000000D03*
D17*
X62660000Y-103460000D03*
X65200000Y-106000000D03*
X65200000Y-103460000D03*
X67740000Y-106000000D03*
X67740000Y-103460000D03*
X70280000Y-106000000D03*
X70280000Y-103460000D03*
X72820000Y-106000000D03*
X72820000Y-103460000D03*
X75360000Y-106000000D03*
X75360000Y-103460000D03*
X77900000Y-106000000D03*
X77900000Y-103460000D03*
X80440000Y-106000000D03*
X80440000Y-103460000D03*
%TD*%
D32*
%TO.C,C13*%
X97520000Y-49360000D03*
X88820000Y-49360000D03*
%TD*%
D33*
%TO.C,TP1*%
X148000000Y-105000000D03*
%TD*%
D34*
%TO.C,R13*%
X160340000Y-99000000D03*
X160340000Y-100650000D03*
%TD*%
D35*
%TO.C,C10*%
X75160000Y-64070000D03*
X69760000Y-64070000D03*
%TD*%
D13*
%TO.C,R10*%
X163840000Y-53130000D03*
X162190000Y-53130000D03*
%TD*%
D35*
%TO.C,C14*%
X171380000Y-63800000D03*
X165980000Y-63800000D03*
%TD*%
D29*
%TO.C,R2*%
X152490000Y-100650000D03*
X152490000Y-99000000D03*
%TD*%
D16*
%TO.C,J17*%
X124830000Y-74730000D03*
D17*
X124830000Y-72190000D03*
%TD*%
D18*
%TO.C,TP3*%
X155500000Y-105000000D03*
%TD*%
D16*
%TO.C,J14*%
X72500000Y-74725000D03*
D17*
X72500000Y-72185000D03*
%TD*%
D10*
%TO.C,L3*%
X61270000Y-63560000D03*
X64270000Y-63560000D03*
%TD*%
D34*
%TO.C,R3*%
X130310000Y-98990000D03*
X130310000Y-100640000D03*
%TD*%
D19*
%TO.C,C3*%
X59210000Y-57625000D03*
X59210000Y-59175000D03*
%TD*%
D14*
%TO.C,H3*%
X50000000Y-45500000D03*
%TD*%
D36*
%TO.C,L2*%
X111870000Y-49420000D03*
X101970000Y-49420000D03*
%TD*%
D16*
%TO.C,J11*%
X182700000Y-106000000D03*
D17*
X182700000Y-103460000D03*
X185240000Y-106000000D03*
X185240000Y-103460000D03*
X187780000Y-106000000D03*
X187780000Y-103460000D03*
X190320000Y-106000000D03*
X190320000Y-103460000D03*
X192860000Y-106000000D03*
X192860000Y-103460000D03*
X195400000Y-106000000D03*
X195400000Y-103460000D03*
X197940000Y-106000000D03*
X197940000Y-103460000D03*
X200480000Y-106000000D03*
X200480000Y-103460000D03*
%TD*%
D16*
%TO.C,J1*%
X65270000Y-91250000D03*
D17*
X62730000Y-91250000D03*
X65270000Y-88710000D03*
X62730000Y-88710000D03*
X65270000Y-86170000D03*
X62730000Y-86170000D03*
X65270000Y-83630000D03*
X62730000Y-83630000D03*
X65270000Y-81090000D03*
X62730000Y-81090000D03*
X65270000Y-78550000D03*
X62730000Y-78550000D03*
X65270000Y-76010000D03*
X62730000Y-76010000D03*
X65270000Y-73470000D03*
X62730000Y-73470000D03*
%TD*%
D31*
%TO.C,C9*%
X69720000Y-56820000D03*
X75120000Y-56820000D03*
%TD*%
D14*
%TO.C,H1*%
X50000000Y-96000000D03*
%TD*%
D29*
%TO.C,R4*%
X66260000Y-62210000D03*
X66260000Y-60560000D03*
%TD*%
D20*
%TO.C,LED3*%
X132125000Y-99000000D03*
X133875000Y-99000000D03*
%TD*%
D24*
%TO.C,U3*%
X157235000Y-54995000D03*
X157235000Y-56265000D03*
X157235000Y-57535000D03*
X157235000Y-58805000D03*
X162185000Y-58805000D03*
X162185000Y-57535000D03*
X162185000Y-56265000D03*
X162185000Y-54995000D03*
D25*
X159710000Y-56900000D03*
%TD*%
D16*
%TO.C,J10*%
X95530000Y-106000000D03*
D17*
X95530000Y-103460000D03*
X98070000Y-106000000D03*
X98070000Y-103460000D03*
X100610000Y-106000000D03*
X100610000Y-103460000D03*
X103150000Y-106000000D03*
X103150000Y-103460000D03*
X105690000Y-106000000D03*
X105690000Y-103460000D03*
X108230000Y-106000000D03*
X108230000Y-103460000D03*
X110770000Y-106000000D03*
X110770000Y-103460000D03*
X113310000Y-106000000D03*
X113310000Y-103460000D03*
%TD*%
D16*
%TO.C,J6*%
X185270000Y-91280000D03*
D17*
X182730000Y-91280000D03*
X185270000Y-88740000D03*
X182730000Y-88740000D03*
X185270000Y-86200000D03*
X182730000Y-86200000D03*
X185270000Y-83660000D03*
X182730000Y-83660000D03*
X185270000Y-81120000D03*
X182730000Y-81120000D03*
X185270000Y-78580000D03*
X182730000Y-78580000D03*
X185270000Y-76040000D03*
X182730000Y-76040000D03*
X185270000Y-73500000D03*
X182730000Y-73500000D03*
%TD*%
D31*
%TO.C,C1*%
X165620000Y-56600000D03*
X171020000Y-56600000D03*
%TD*%
D16*
%TO.C,J2*%
X89270000Y-91280000D03*
D17*
X86730000Y-91280000D03*
X89270000Y-88740000D03*
X86730000Y-88740000D03*
X89270000Y-86200000D03*
X86730000Y-86200000D03*
X89270000Y-83660000D03*
X86730000Y-83660000D03*
X89270000Y-81120000D03*
X86730000Y-81120000D03*
X89270000Y-78580000D03*
X86730000Y-78580000D03*
X89270000Y-76040000D03*
X86730000Y-76040000D03*
X89270000Y-73500000D03*
X86730000Y-73500000D03*
%TD*%
D28*
%TO.C,L1*%
X61140000Y-52510000D03*
X61140000Y-42610000D03*
%TD*%
D18*
%TO.C,TP5*%
X163000000Y-105000000D03*
%TD*%
M02*
